#N canvas 0 23 1440 790 10;
#X declare -lib Pan;
#X text 12 -22 NEELOO v.01;
#X obj 613 362 hsl 128 20 0 1 0 1 empty empty pan_position 6 10 1 11
-262131 -1 -1 7736 0;
#X obj 512 391 equal_power_pan~;
#X obj 536 460 dac~ 1 2;
#X obj 297 242 +~;
#X floatatom 283 212 5 0 0 0 - - -;
#X text 270 193 Carrier;
#X floatatom 369 168 5 0 0 0 - - -;
#X obj 369 188 osc~;
#X obj 369 209 *~ 0.8;
#X text 352 147 Modulator Freq;
#X floatatom 435 184 5 0 0 0 - - -;
#X text 430 167 Mod Index;
#X obj 355 301 line~;
#X msg 356 277 \$1 50;
#X obj 294 307 *~;
#X obj 366 252 tgl 15 0 empty empty empty 17 7 0 10 -262144 -1 -1 0
1;
#X obj 294 269 osc~;
#X obj 466 107 metro 1000;
#X obj 481 53 tgl 15 0 empty empty empty 17 7 0 10 -262144 -1 -1 0
1;
#X obj 469 136 random 700;
#X obj 220 127 metro 1000;
#X obj 235 73 tgl 15 0 empty empty empty 17 7 0 10 -262144 -1 -1 0
1;
#X obj 223 156 random 700;
#X obj 725 217 +~;
#X floatatom 711 187 5 0 0 0 - - -;
#X text 698 168 Carrier;
#X floatatom 797 143 5 0 0 0 - - -;
#X obj 797 163 osc~;
#X obj 797 184 *~ 0.8;
#X text 780 122 Modulator Freq;
#X floatatom 863 159 5 0 0 0 - - -;
#X text 858 142 Mod Index;
#X obj 783 276 line~;
#X msg 784 252 \$1 50;
#X obj 718 281 *~;
#X obj 794 227 tgl 15 0 empty empty empty 17 7 0 10 -262144 -1 -1 0
1;
#X obj 722 244 osc~;
#X obj 988 163 metro 1000;
#X obj 1003 109 tgl 15 0 empty empty empty 17 7 0 10 -262144 -1 -1
0 1;
#X obj 991 192 random 700;
#X obj 596 139 metro 1000;
#X obj 611 85 tgl 15 0 empty empty empty 17 7 0 10 -262144 -1 -1 0
1;
#X obj 599 168 random 700;
#X obj 889 369 hsl 128 20 0 1 0 1 empty empty pan_position 6 10 1 11
-262131 -1 -1 11540 0;
#X obj 788 398 equal_power_pan~;
#X obj 151 484 +~;
#X floatatom 137 454 5 0 0 0 - - -;
#X text 124 435 Carrier;
#X floatatom 223 410 5 0 0 0 - - -;
#X obj 223 451 *~ 0.8;
#X text 206 389 Modulator Freq;
#X floatatom 289 426 5 0 0 0 - - -;
#X text 284 409 Mod Index;
#X obj 209 543 line~;
#X obj 220 494 tgl 15 0 empty empty empty 17 7 0 10 -262144 -1 -1 0
1;
#X obj 414 430 metro 1000;
#X obj 429 376 tgl 15 0 empty empty empty 17 7 0 10 -262144 -1 -1 0
1;
#X obj 417 459 random 700;
#X obj 22 406 metro 1000;
#X obj 37 352 tgl 15 0 empty empty empty 17 7 0 10 -262144 -1 -1 0
1;
#X obj 25 435 random 700;
#X obj 315 636 hsl 128 20 0 1 0 1 empty empty pan_position 6 10 1 11
-262131 -1 -1 8630 0;
#X obj 214 665 equal_power_pan~;
#X msg 210 519 \$1 50;
#X obj 144 549 *~;
#X obj 296 490 vsl 15 128 0 0.8 0 0 empty empty empty 0 -9 0 10 -262144
-1 -1 0 1;
#X obj 530 211 vsl 15 128 0 0.8 0 0 empty empty empty 0 -9 0 10 -262144
-1 -1 0 1;
#X obj 902 225 vsl 15 128 0 0.8 0 0 empty empty empty 0 -9 0 10 -262144
-1 -1 0 1;
#X obj 148 511 osc~;
#X obj 223 430 phasor~;
#X obj 784 535 +~;
#X floatatom 770 505 5 0 0 0 - - -;
#X text 757 486 Carrier;
#X floatatom 856 461 5 0 0 0 - - -;
#X obj 856 502 *~ 0.8;
#X text 839 440 Modulator Freq;
#X floatatom 922 477 5 0 0 0 - - -;
#X text 917 460 Mod Index;
#X obj 842 594 line~;
#X obj 853 545 tgl 15 0 empty empty empty 17 7 0 10 -262144 -1 -1 0
1;
#X obj 1047 481 metro 1000;
#X obj 1062 427 tgl 15 0 empty empty empty 17 7 0 10 -262144 -1 -1
0 1;
#X obj 1050 510 random 700;
#X obj 655 457 metro 1000;
#X obj 670 403 tgl 15 0 empty empty empty 17 7 0 10 -262144 -1 -1 0
1;
#X obj 658 486 random 700;
#X obj 750 689 hsl 128 20 0 1 0 1 empty empty pan_position 6 10 1 11
-262131 -1 -1 6324 0;
#X obj 741 713 equal_power_pan~;
#X msg 843 570 \$1 50;
#X obj 777 600 *~;
#X obj 927 542 vsl 15 128 0 0.8 0 0 empty empty empty 0 -9 0 10 -262144
-1 -1 0 1;
#X obj 856 481 phasor~;
#X obj 780 562 osc~;
#X obj 1309 195 metro;
#X obj 1305 267 metro;
#X obj 1223 276 sel 1 2 3;
#X obj 1168 289 bng 15 250 50 0 empty empty empty 17 7 0 10 -262144
-1 -1;
#X obj 1278 313 bng 15 250 50 0 empty empty empty 17 7 0 10 -262144
-1 -1;
#X obj 1249 312 bng 15 250 50 0 empty empty empty 17 7 0 10 -262144
-1 -1;
#X obj 1212 302 bng 15 250 50 0 empty empty empty 17 7 0 10 -262144
-1 -1;
#X obj 1312 223 random 4;
#X obj 1195 408 mtof;
#X obj 1307 470 vline~;
#X obj 1215 511 *~;
#X obj 1130 481 clip~ -0.5 0.5;
#X obj 1421 208 metro;
#X obj 1529 292 metro;
#X obj 1447 301 sel 1 2 3;
#X obj 1392 314 bng 15 250 50 0 empty empty empty 17 7 0 10 -262144
-1 -1;
#X obj 1502 338 bng 15 250 50 0 empty empty empty 17 7 0 10 -262144
-1 -1;
#X obj 1473 337 bng 15 250 50 0 empty empty empty 17 7 0 10 -262144
-1 -1;
#X obj 1436 327 bng 15 250 50 0 empty empty empty 17 7 0 10 -262144
-1 -1;
#X obj 1536 248 random 4;
#X obj 1397 431 mtof;
#X obj 1531 495 vline~;
#X obj 1439 536 *~;
#X obj 1770 235 metro;
#X obj 1766 307 metro;
#X obj 1684 316 sel 1 2 3;
#X obj 1629 329 bng 15 250 50 0 empty empty empty 17 7 0 10 -262144
-1 -1;
#X obj 1739 353 bng 15 250 50 0 empty empty empty 17 7 0 10 -262144
-1 -1;
#X obj 1710 352 bng 15 250 50 0 empty empty empty 17 7 0 10 -262144
-1 -1;
#X obj 1673 342 bng 15 250 50 0 empty empty empty 17 7 0 10 -262144
-1 -1;
#X obj 1773 263 random 4;
#X obj 1656 448 mtof;
#X obj 1768 510 vline~;
#X obj 1676 551 *~;
#X msg 1489 376 59;
#X obj 1362 510 clip~ -0.5 0.5;
#X obj 1361 481 osc~;
#X obj 1138 456 osc~;
#X obj 1599 496 osc~;
#X obj 1488 548 sel 1 2 3;
#X obj 1459 560 bng 15 250 50 0 empty empty empty 17 7 0 10 -262144
-1 -1;
#X obj 1543 585 bng 15 250 50 0 empty empty empty 17 7 0 10 -262144
-1 -1;
#X obj 1514 584 bng 15 250 50 0 empty empty empty 17 7 0 10 -262144
-1 -1;
#X obj 1477 574 bng 15 250 50 0 empty empty empty 17 7 0 10 -262144
-1 -1;
#X obj 1473 514 mtof;
#X obj 1529 415 random 4;
#X obj 1263 531 sel 1 2 3;
#X obj 1208 544 bng 15 250 50 0 empty empty empty 17 7 0 10 -262144
-1 -1;
#X obj 1289 567 bng 15 250 50 0 empty empty empty 17 7 0 10 -262144
-1 -1;
#X obj 1252 557 bng 15 250 50 0 empty empty empty 17 7 0 10 -262144
-1 -1;
#X obj 1185 645 mtof;
#X obj 1332 246 random 4;
#X obj 1334 574 bng 15 250 50 0 empty empty empty 17 7 0 10 -262144
-1 -1;
#X obj 1199 453 phasor~;
#X msg 1198 603 62;
#X msg 1232 604 67;
#X msg 1272 604 69;
#X obj 1439 469 osc~;
#X msg 1423 620 62;
#X msg 1457 621 67;
#X msg 1497 621 69;
#X msg 1530 623 71;
#X msg 1309 606 71;
#X obj 1241 494 clip~ -0.4 0.4;
#X obj 1434 490 clip~ -0.4 0.4;
#X obj 1589 522 clip~ -0.4 0.4;
#X msg 1280 434 0.8 0.25 \, 0 10 100;
#X msg 1504 459 0.8 0.5 \, 0 200 150;
#X msg 1740 474 0.8 0.25 \, 0 150 10;
#X msg 1277 351 65;
#X obj 1571 157 tgl 15 0 empty empty empty 17 7 0 10 -262144 -1 -1
0 1;
#X obj 1204 143 tgl 15 0 empty empty empty 17 7 0 10 -262144 -1 -1
0 1;
#X obj 1512 139 tgl 15 0 empty empty empty 17 7 0 10 -262144 -1 -1
0 1;
#X msg 1157 348 59;
#X msg 1193 348 64;
#X obj 542 719 freeverb~;
#X obj 548 748 dac~ 1 2;
#X obj 549 497 vsl 15 128 0 0.8 0 0 empty empty empty 0 -9 0 10 -262144
-1 -1 0 1;
#X obj 599 605 hsl 128 20 0 1 0 1 empty empty pan_position 6 10 1 11
-262131 -1 -1 9890 0;
#X obj 499 678 equal_power_pan~;
#X obj 365 708 hsl 128 20 0 1 0 1 empty empty pan_position 6 10 1 11
-262131 -1 -1 5297 0;
#X obj 264 737 equal_power_pan~;
#X obj 176 638 vsl 15 128 0 0.8 0 0 empty empty empty 0 -9 0 10 -262144
-1 -1 0 1;
#X obj 990 304 hsl 128 20 0 1 0 1 empty empty pan_position 6 10 1 11
-262131 -1 -1 7925 0;
#X obj 940 333 equal_power_pan~;
#X obj 1064 164 vsl 15 128 0 0.8 0 0 empty empty empty 0 -9 0 10 -262144
-1 -1 0 1;
#X obj 1037 717 hsl 128 20 0 1 0 1 empty empty pan_position 6 10 1
11 -262131 -1 -1 2576 0;
#X obj 936 746 equal_power_pan~;
#X obj 1018 571 vsl 15 128 0 0.8 0 0 empty empty empty 0 -9 0 10 -262144
-1 -1 0 1;
#X obj 2022 281 *~ 0.6;
#X obj 1918 107 vsl 15 128 0 1 0 0 empty empty empty 0 -9 0 10 -262144
-1 -1 0 1;
#X obj 1308 295 random 2000;
#X obj 1870 581 hsl 128 20 0 1 0 1 empty empty pan_position 6 10 1
11 -262131 -1 -1 2738 0;
#X obj 1766 616 equal_power_pan~;
#X obj 1773 664 dac~ 1 2;
#X obj 2001 436 hsl 128 20 0 1 0 1 empty empty pan_position 6 10 1
11 -262131 -1 -1 10280 0;
#X obj 1900 465 equal_power_pan~;
#X obj 1904 519 dac~ 1 2;
#X obj 1901 494 freeverb~;
#X obj 1953 231 delwrite~ delayname 750;
#X obj 1955 317 delread~ delayname 150;
#X obj 1824 741 *~ 0.6;
#X obj 1719 557 vsl 15 128 0 1 0 0 empty empty empty 0 -9 0 10 -262144
-1 -1 0 1;
#X msg 1232 349 71;
#X msg 1382 373 47;
#X msg 1416 374 52;
#X obj 1794 155 *~ 0.6;
#X obj 1690 -19 vsl 15 128 0 1 0 0 empty empty empty 0 -9 0 10 -262144
-1 -1 0 1;
#X obj 1725 105 delwrite~ delayname1 750;
#X obj 1727 191 delread~ delayname1 150;
#X obj 2078 482 hsl 128 20 0 1 0 1 empty empty pan_position 6 10 1
11 -262131 -1 -1 6389 0;
#X obj 1977 511 equal_power_pan~;
#X obj 1989 624 hsl 128 20 0 1 0 1 empty empty pan_position 6 10 1
11 -262131 -1 -1 9040 0;
#X obj 1888 653 equal_power_pan~;
#X obj 1741 701 delwrite~ delaynam 750;
#X obj 1757 777 delread~ delaynam 150;
#X obj 2073 755 *~ 0.6;
#X obj 1967 690 vsl 15 128 0 1 0 0 empty empty empty 0 -9 0 10 -262144
-1 -1 0 1;
#X obj 2004 705 delwrite~ delaynam1 750;
#X obj 2006 791 delread~ delaynam1 150;
#X obj 1532 319 random 1400;
#X msg 1456 375 61;
#X obj 2138 165 *~ 0.6;
#X obj 2034 -9 vsl 15 128 0 1 0 0 empty empty empty 0 -9 0 10 -262144
-1 -1 0 1;
#X obj 2069 115 delwrite~ delayname2 750;
#X obj 2071 201 delread~ delayname2 150;
#X obj 2071 367 hsl 128 20 0 1 0 1 empty empty pan_position 6 10 1
11 -262131 -1 -1 7573 0;
#X obj 1936 397 equal_power_pan~;
#X msg 1619 388 71;
#X msg 1654 389 80;
#X msg 1693 389 75;
#X msg 1737 391 69;
#X obj 1768 334 random 750;
#X obj 1601 732 hsl 128 20 0 1 0 1 empty empty pan_position 6 10 1
11 -262131 -1 -1 9661 0;
#X obj 1500 761 equal_power_pan~;
#X obj 1407 739 *~ 0.6;
#X obj 1301 674 vsl 15 128 0 1 0 0 empty empty empty 0 -9 0 10 -262144
-1 -1 0 1;
#X obj 1338 689 delwrite~ delaynam2 750;
#X obj 1340 775 delread~ delaynam2 150;
#X obj 791 9 bng 15 250 50 0 empty empty empty 17 7 0 10 -262144 -1
-1;
#X obj 359 53 bng 15 250 50 0 empty empty empty 17 7 0 10 -262144 -1
-1;
#X obj 731 102 bng 15 250 50 0 empty empty empty 17 7 0 10 -262144
-1 -1;
#X obj 104 342 bng 15 250 50 0 empty empty empty 17 7 0 10 -262144
-1 -1;
#X obj 1229 12 unpackOSC;
#X obj 1230 -20 udpreceive 8888;
#X obj 796 -15 routeOSC /dsp1;
#X obj 906 6 bng 15 250 50 0 empty empty empty 17 7 0 10 -262144 -1
-1;
#X obj 911 -18 routeOSC /dsp2;
#X obj 471 329 *~;
#X obj 490 615 *~;
#X obj 405 18 routeOSC /a1;
#X obj 367 97 routeOSC /a2;
#X obj 405 237 routeOSC /a3;
#X obj 568 221 routeOSC /a4;
#X obj 574 267 routeOSC /a5;
#X obj 727 73 routeOSC /b1;
#X obj 821 85 routeOSC /b2;
#X obj 819 219 routeOSC /b3;
#X obj 935 221 routeOSC /b4;
#X obj 1067 117 routeOSC /b5;
#X obj 101 314 routeOSC /c1;
#X obj 210 362 routeOSC /c2;
#X obj 216 472 routeOSC /c3;
#X obj 333 477 routeOSC /c4;
#X obj 217 622 routeOSC /c5;
#X obj 754 460 bng 15 250 50 0 empty empty empty 17 7 0 10 -262144
-1 -1;
#X obj 751 432 routeOSC /d1;
#X obj 895 406 routeOSC /d2;
#X obj 850 525 routeOSC /d3;
#X obj 945 512 routeOSC /d4;
#X obj 1042 550 routeOSC /d5;
#X obj 514 45 routeOSC /a6;
#X obj 601 35 routeOSC /a7;
#X obj 920 61 routeOSC /b6;
#X obj 1007 51 routeOSC /b7;
#X obj 48 250 routeOSC /c6;
#X obj 135 240 routeOSC /c7;
#X obj 1056 608 routeOSC /d7;
#X obj 1054 636 routeOSC /d6;
#X msg 792 34 \; pd dsp 1;
#X msg 864 31 \; pd dsp 0;
#X obj 177 604 *~;
#X obj 57 752 *~;
#X obj 843 343 *~;
#X obj 995 279 *~;
#X obj 783 655 *~;
#X obj 899 685 *~;
#X obj 1229 78 routeOSC /g1;
#X obj 1285 105 routeOSC /g2;
#X obj 1329 142 routeOSC /g3;
#X obj 1350 65 routeOSC /g4;
#X obj 1372 94 routeOSC /g5;
#X obj 1430 24 routeOSC /h1;
#X obj 1487 50 routeOSC /h2;
#X obj 1531 87 routeOSC /h3;
#X obj 1574 39 routeOSC /h5;
#X obj 1552 10 routeOSC /h4;
#X obj 1725 8 routeOSC /i1;
#X obj 1783 32 routeOSC /i2;
#X obj 1826 71 routeOSC /i3;
#X obj 1847 -6 routeOSC /i4;
#X obj 1869 23 routeOSC /i5;
#X obj 1606 678 *~;
#X obj 1856 231 *~;
#X obj 1628 105 *~;
#X obj 1972 115 *~;
#X obj 1241 689 *~;
#X obj 1907 705 *~;
#X obj 19 57 declare -lib Pan;
#X text 12 -4 PD mini generative synth made by: Rangga Purnama Aji
30/11/2019 A simple PD machine that i built \, implementing OSC for
the sound parameter controling. Originally made for a part of digital
instrument practice for Ignatia Nilu;
#X connect 1 0 2 1;
#X connect 2 0 3 0;
#X connect 2 1 3 1;
#X connect 4 0 17 0;
#X connect 5 0 4 0;
#X connect 7 0 8 0;
#X connect 8 0 9 0;
#X connect 9 0 4 1;
#X connect 11 0 9 1;
#X connect 13 0 15 1;
#X connect 14 0 13 0;
#X connect 15 0 242 0;
#X connect 15 0 243 0;
#X connect 16 0 14 0;
#X connect 17 0 15 0;
#X connect 18 0 20 0;
#X connect 19 0 18 0;
#X connect 20 0 18 1;
#X connect 20 0 11 0;
#X connect 21 0 23 0;
#X connect 22 0 21 0;
#X connect 23 0 5 0;
#X connect 23 0 21 1;
#X connect 24 0 37 0;
#X connect 25 0 24 0;
#X connect 27 0 28 0;
#X connect 28 0 29 0;
#X connect 29 0 24 1;
#X connect 31 0 29 1;
#X connect 33 0 35 1;
#X connect 34 0 33 0;
#X connect 35 0 277 0;
#X connect 35 0 278 0;
#X connect 36 0 34 0;
#X connect 37 0 35 0;
#X connect 38 0 40 0;
#X connect 39 0 38 0;
#X connect 40 0 38 1;
#X connect 40 0 31 0;
#X connect 41 0 43 0;
#X connect 42 0 41 0;
#X connect 43 0 25 0;
#X connect 43 0 41 1;
#X connect 44 0 45 1;
#X connect 45 0 3 0;
#X connect 45 1 3 1;
#X connect 46 0 69 0;
#X connect 47 0 46 0;
#X connect 49 0 70 0;
#X connect 50 0 46 1;
#X connect 52 0 50 1;
#X connect 54 0 65 1;
#X connect 55 0 64 0;
#X connect 56 0 58 0;
#X connect 57 0 56 0;
#X connect 58 0 56 1;
#X connect 58 0 52 0;
#X connect 59 0 61 0;
#X connect 60 0 59 0;
#X connect 61 0 47 0;
#X connect 61 0 59 1;
#X connect 62 0 63 1;
#X connect 63 0 3 0;
#X connect 63 1 3 1;
#X connect 64 0 54 0;
#X connect 65 0 275 0;
#X connect 65 0 276 0;
#X connect 66 0 275 1;
#X connect 67 0 242 1;
#X connect 68 0 277 1;
#X connect 69 0 65 0;
#X connect 70 0 50 0;
#X connect 71 0 93 0;
#X connect 72 0 71 0;
#X connect 74 0 92 0;
#X connect 75 0 71 1;
#X connect 77 0 75 1;
#X connect 79 0 90 1;
#X connect 80 0 89 0;
#X connect 81 0 83 0;
#X connect 82 0 81 0;
#X connect 83 0 81 1;
#X connect 83 0 77 0;
#X connect 84 0 86 0;
#X connect 85 0 84 0;
#X connect 86 0 72 0;
#X connect 86 0 84 1;
#X connect 87 0 88 1;
#X connect 88 0 3 0;
#X connect 88 1 3 1;
#X connect 89 0 79 0;
#X connect 90 0 279 0;
#X connect 90 0 280 0;
#X connect 91 0 279 1;
#X connect 92 0 75 0;
#X connect 93 0 90 0;
#X connect 94 0 95 0;
#X connect 94 0 101 0;
#X connect 94 0 145 0;
#X connect 95 0 185 0;
#X connect 96 0 97 0;
#X connect 96 1 100 0;
#X connect 96 2 99 0;
#X connect 96 3 98 0;
#X connect 97 0 167 0;
#X connect 97 0 160 0;
#X connect 98 0 163 0;
#X connect 98 0 160 0;
#X connect 99 0 197 0;
#X connect 99 0 160 0;
#X connect 100 0 168 0;
#X connect 100 0 160 0;
#X connect 101 0 96 0;
#X connect 102 0 131 0;
#X connect 103 0 104 1;
#X connect 104 0 193 0;
#X connect 104 0 208 0;
#X connect 105 0 104 0;
#X connect 106 0 107 0;
#X connect 106 0 113 0;
#X connect 106 0 139 0;
#X connect 107 0 214 0;
#X connect 108 0 109 0;
#X connect 108 1 112 0;
#X connect 108 2 111 0;
#X connect 108 3 110 0;
#X connect 109 0 198 0;
#X connect 109 0 161 0;
#X connect 110 0 128 0;
#X connect 110 0 161 0;
#X connect 111 0 215 0;
#X connect 111 0 161 0;
#X connect 112 0 199 0;
#X connect 112 0 161 0;
#X connect 113 0 108 0;
#X connect 114 0 130 0;
#X connect 115 0 116 1;
#X connect 116 0 202 0;
#X connect 116 0 212 0;
#X connect 117 0 118 0;
#X connect 117 0 124 0;
#X connect 118 0 226 0;
#X connect 119 0 120 0;
#X connect 119 1 123 0;
#X connect 119 2 122 0;
#X connect 119 3 121 0;
#X connect 120 0 222 0;
#X connect 120 0 162 0;
#X connect 121 0 225 0;
#X connect 121 0 162 0;
#X connect 122 0 224 0;
#X connect 122 0 162 0;
#X connect 123 0 223 0;
#X connect 123 0 162 0;
#X connect 124 0 119 0;
#X connect 125 0 132 0;
#X connect 126 0 127 1;
#X connect 127 0 218 0;
#X connect 127 0 231 0;
#X connect 128 0 114 0;
#X connect 129 0 116 0;
#X connect 130 0 129 0;
#X connect 131 0 105 0;
#X connect 132 0 159 0;
#X connect 133 0 134 0;
#X connect 133 1 137 0;
#X connect 133 2 136 0;
#X connect 133 3 135 0;
#X connect 134 0 152 0;
#X connect 135 0 155 0;
#X connect 136 0 154 0;
#X connect 137 0 153 0;
#X connect 138 0 151 0;
#X connect 139 0 133 0;
#X connect 140 0 141 0;
#X connect 140 1 143 0;
#X connect 140 2 142 0;
#X connect 140 3 146 0;
#X connect 141 0 148 0;
#X connect 142 0 150 0;
#X connect 143 0 149 0;
#X connect 144 0 147 0;
#X connect 145 0 140 0;
#X connect 146 0 156 0;
#X connect 147 0 157 0;
#X connect 148 0 144 0;
#X connect 149 0 144 0;
#X connect 150 0 144 0;
#X connect 151 0 158 0;
#X connect 152 0 138 0;
#X connect 153 0 138 0;
#X connect 154 0 138 0;
#X connect 155 0 138 0;
#X connect 156 0 144 0;
#X connect 157 0 104 0;
#X connect 158 0 116 0;
#X connect 159 0 127 0;
#X connect 160 0 103 0;
#X connect 161 0 115 0;
#X connect 162 0 126 0;
#X connect 163 0 102 0;
#X connect 164 0 117 0;
#X connect 165 0 94 0;
#X connect 166 0 106 0;
#X connect 167 0 102 0;
#X connect 168 0 102 0;
#X connect 169 0 170 0;
#X connect 169 1 170 1;
#X connect 171 0 243 1;
#X connect 172 0 173 1;
#X connect 173 0 169 0;
#X connect 173 1 169 1;
#X connect 174 0 175 1;
#X connect 175 0 169 0;
#X connect 175 1 169 1;
#X connect 176 0 276 1;
#X connect 177 0 178 1;
#X connect 178 0 169 0;
#X connect 178 1 169 1;
#X connect 179 0 278 1;
#X connect 180 0 181 1;
#X connect 181 0 169 0;
#X connect 181 1 169 1;
#X connect 182 0 280 1;
#X connect 183 0 193 0;
#X connect 184 0 297 1;
#X connect 185 0 94 1;
#X connect 186 0 187 1;
#X connect 187 0 188 0;
#X connect 187 1 188 1;
#X connect 189 0 190 1;
#X connect 190 0 192 0;
#X connect 190 1 192 1;
#X connect 192 0 191 0;
#X connect 192 1 191 1;
#X connect 194 0 183 0;
#X connect 194 0 297 0;
#X connect 195 0 208 0;
#X connect 196 0 296 1;
#X connect 197 0 102 0;
#X connect 198 0 114 0;
#X connect 199 0 114 0;
#X connect 200 0 202 0;
#X connect 201 0 298 1;
#X connect 203 0 200 0;
#X connect 203 0 298 0;
#X connect 204 0 205 1;
#X connect 205 0 192 0;
#X connect 205 1 192 1;
#X connect 206 0 207 1;
#X connect 207 0 188 0;
#X connect 207 1 188 1;
#X connect 209 0 195 0;
#X connect 209 0 296 0;
#X connect 210 0 212 0;
#X connect 211 0 301 1;
#X connect 213 0 210 0;
#X connect 213 0 301 0;
#X connect 214 0 106 1;
#X connect 215 0 114 0;
#X connect 216 0 218 0;
#X connect 217 0 299 1;
#X connect 219 0 216 0;
#X connect 219 0 299 0;
#X connect 220 0 221 1;
#X connect 221 0 192 0;
#X connect 221 1 192 1;
#X connect 222 0 125 0;
#X connect 223 0 125 0;
#X connect 224 0 125 0;
#X connect 225 0 125 0;
#X connect 226 0 117 1;
#X connect 227 0 228 1;
#X connect 228 0 188 0;
#X connect 228 1 188 1;
#X connect 229 0 231 0;
#X connect 230 0 300 1;
#X connect 232 0 229 0;
#X connect 232 0 300 0;
#X connect 233 0 273 0;
#X connect 234 0 22 0;
#X connect 234 0 19 0;
#X connect 235 0 42 0;
#X connect 235 0 39 0;
#X connect 236 0 60 0;
#X connect 236 0 57 0;
#X connect 237 0 239 0;
#X connect 237 0 241 0;
#X connect 237 0 244 0;
#X connect 237 0 245 0;
#X connect 237 0 246 0;
#X connect 237 0 247 0;
#X connect 237 0 248 0;
#X connect 237 0 249 0;
#X connect 237 0 250 0;
#X connect 237 0 251 0;
#X connect 237 0 252 0;
#X connect 237 0 253 0;
#X connect 237 0 254 0;
#X connect 237 0 255 0;
#X connect 237 0 257 0;
#X connect 237 0 256 0;
#X connect 237 0 258 0;
#X connect 237 0 260 0;
#X connect 237 0 261 0;
#X connect 237 0 262 0;
#X connect 237 0 263 0;
#X connect 237 0 264 0;
#X connect 237 0 265 0;
#X connect 237 0 266 0;
#X connect 237 0 268 0;
#X connect 237 0 267 0;
#X connect 237 0 271 0;
#X connect 237 0 272 0;
#X connect 237 0 270 0;
#X connect 237 0 269 0;
#X connect 237 0 281 0;
#X connect 237 0 282 0;
#X connect 237 0 284 0;
#X connect 237 0 285 0;
#X connect 237 0 283 0;
#X connect 237 0 286 0;
#X connect 237 0 287 0;
#X connect 237 0 290 0;
#X connect 237 0 289 0;
#X connect 237 0 288 0;
#X connect 237 0 291 0;
#X connect 237 0 292 0;
#X connect 237 0 293 0;
#X connect 237 0 294 0;
#X connect 237 0 295 0;
#X connect 238 0 237 0;
#X connect 239 0 233 0;
#X connect 240 0 274 0;
#X connect 241 0 240 0;
#X connect 242 0 2 0;
#X connect 243 0 173 0;
#X connect 244 0 234 0;
#X connect 245 0 7 0;
#X connect 246 0 16 0;
#X connect 247 0 67 0;
#X connect 248 0 171 0;
#X connect 249 0 235 0;
#X connect 250 0 27 0;
#X connect 251 0 36 0;
#X connect 252 0 68 0;
#X connect 253 0 179 0;
#X connect 254 0 236 0;
#X connect 255 0 49 0;
#X connect 256 0 55 0;
#X connect 257 0 66 0;
#X connect 258 0 176 0;
#X connect 259 0 85 0;
#X connect 259 0 82 0;
#X connect 260 0 259 0;
#X connect 261 0 74 0;
#X connect 262 0 80 0;
#X connect 263 0 91 0;
#X connect 264 0 182 0;
#X connect 265 0 1 0;
#X connect 266 0 172 0;
#X connect 267 0 44 0;
#X connect 268 0 177 0;
#X connect 269 0 62 0;
#X connect 270 0 174 0;
#X connect 271 0 180 0;
#X connect 272 0 87 0;
#X connect 275 0 63 0;
#X connect 276 0 175 0;
#X connect 277 0 45 0;
#X connect 278 0 178 0;
#X connect 279 0 88 0;
#X connect 280 0 181 0;
#X connect 281 0 165 0;
#X connect 282 0 196 0;
#X connect 283 0 186 0;
#X connect 284 0 184 0;
#X connect 285 0 189 0;
#X connect 286 0 166 0;
#X connect 287 0 211 0;
#X connect 288 0 206 0;
#X connect 289 0 204 0;
#X connect 290 0 201 0;
#X connect 291 0 164 0;
#X connect 292 0 230 0;
#X connect 293 0 227 0;
#X connect 294 0 217 0;
#X connect 295 0 220 0;
#X connect 296 0 187 0;
#X connect 297 0 190 0;
#X connect 298 0 205 0;
#X connect 299 0 221 0;
#X connect 300 0 228 0;
#X connect 301 0 207 0;
